<svg width="21" height="20" viewBox="0 0 21 20" fill="none" xmlns="http://www.w3.org/2000/svg">
<path d="M20.8925 18.7995C19.3999 16.2288 17.0096 14.3007 14.1812 13.3859C15.5362 12.5797 16.589 11.351 17.178 9.88843C17.767 8.42589 17.8595 6.81044 17.4415 5.29021C17.0234 3.76997 16.1178 2.42901 14.8638 1.47331C13.6098 0.517603 12.0767 0 10.5 0C8.92331 0 7.39022 0.517603 6.13621 1.47331C4.88219 2.42901 3.9766 3.76997 3.55852 5.29021C3.14045 6.81044 3.23301 8.42589 3.82199 9.88843C4.41097 11.351 5.4638 12.5797 6.81877 13.3859C3.99046 14.3006 1.60016 16.2287 0.107536 18.7993C0.0549275 18.8902 0.0207446 18.9906 0.00693846 19.0948C-0.00686768 19.1989 -2.65955e-05 19.3047 0.0270711 19.4062C0.0541688 19.5077 0.100992 19.6029 0.164869 19.6863C0.228745 19.7697 0.308422 19.8397 0.399352 19.8923C0.490282 19.9449 0.590684 19.9791 0.694824 19.9929C0.798965 20.0067 0.904805 19.9999 1.0063 19.9728C1.1078 19.9457 1.20296 19.8989 1.28637 19.835C1.36977 19.7711 1.43977 19.6914 1.49238 19.6005C2.40556 18.0197 3.71869 16.707 5.29985 15.7944C6.881 14.8818 8.67448 14.4014 10.5001 14.4014C12.3257 14.4014 14.1192 14.8819 15.7003 15.7945C17.2815 16.7072 18.5946 18.0199 19.5077 19.6007C19.5603 19.6916 19.6303 19.7713 19.7137 19.8352C19.7971 19.899 19.8923 19.9458 19.9938 19.9729C20.0953 20 20.2011 20.0069 20.3052 19.9931C20.4094 19.9792 20.5098 19.9451 20.6007 19.8925C20.6916 19.8399 20.7713 19.7698 20.8352 19.6865C20.899 19.6031 20.9458 19.5079 20.9729 19.4064C21 19.3049 21.0069 19.1991 20.9931 19.0949C20.9792 18.9908 20.9451 18.8904 20.8925 18.7995ZM4.90059 7.20227C4.90059 6.09482 5.22898 5.01225 5.84425 4.09144C6.45951 3.17064 7.33402 2.45296 8.35716 2.02916C9.38031 1.60536 10.5062 1.49447 11.5923 1.71052C12.6785 1.92657 13.6762 2.45986 14.4593 3.24294C15.2424 4.02602 15.7757 5.02373 15.9917 6.10989C16.2078 7.19606 16.0969 8.3219 15.6731 9.34504C15.2493 10.3682 14.5316 11.2427 13.6108 11.8579C12.69 12.4732 11.6074 12.8016 10.4999 12.8016C9.01542 12.7999 7.59219 12.2094 6.54247 11.1597C5.49276 10.11 4.90228 8.68678 4.90059 7.20227Z" fill="black"/>
</svg>
