<svg width="21" height="23" viewBox="0 0 21 23" fill="none" xmlns="http://www.w3.org/2000/svg">
<path d="M0.740476 8.03857H19.2435V18.5569C19.2435 20.6017 17.5858 22.2593 15.5411 22.2593H4.44285C2.39809 22.2593 0.740476 20.6017 0.740476 18.5569V8.03857Z" stroke="black" stroke-width="1.48095"/>
<path fill-rule="evenodd" clip-rule="evenodd" d="M14.2215 6.49541V6.49534C14.2215 4.15987 12.3283 2.2666 9.9928 2.2666C7.65733 2.2666 5.76406 4.15987 5.76406 6.49534V6.49541H5.7373V10.064C5.7373 10.4729 5.40578 10.8044 4.99682 10.8044C4.58787 10.8044 4.25635 10.4729 4.25635 10.064V6.49541C4.25635 6.42198 4.26703 6.35106 4.28694 6.28409C4.39807 3.22858 6.91014 0.785645 9.9928 0.785645C13.0753 0.785645 15.5872 3.2283 15.6986 6.28356C15.7186 6.35068 15.7294 6.42179 15.7294 6.49541V10.064C15.7294 10.4729 15.3979 10.8044 14.9889 10.8044C14.58 10.8044 14.2484 10.4729 14.2484 10.064V6.49541H14.2215Z" fill="black"/>
</svg>
